<?xml version="1.0" encoding="UTF-8"?>
<!DOCTYPE svg PUBLIC "-//W3C//DTD SVG 1.1//EN" "http://www.w3.org/Graphics/SVG/1.1/DTD/svg11.dtd">
<!-- Creator: CorelDRAW 2019 (64-Bit) -->
<svg xmlns="http://www.w3.org/2000/svg" xml:space="preserve" width="290mm" height="290mm" version="1.1" style="shape-rendering:geometricPrecision; text-rendering:geometricPrecision; image-rendering:optimizeQuality; fill-rule:evenodd; clip-rule:evenodd"
viewBox="0 0 29000 29000"
 xmlns:xlink="http://www.w3.org/1999/xlink"
 xmlns:xodm="http://www.corel.com/coreldraw/odm/2003">
 <defs>
  <style type="text/css">
   <![CDATA[
    .fil1 {fill:#23AEF0}
    .fil0 {fill:#783AC9}
   ]]>
  </style>
 </defs>
 <g id="Слой_x0020_1">
  <metadata id="CorelCorpID_0Corel-Layer"/>
  <g id="_1924570450896">
   <path class="fil0" d="M22622.82 5024.67c-760.98,-265.84 -353.22,-707.18 -1649.62,1531.8 -504.89,871.97 -1183.76,2528.26 -1697.22,2005.75 -453.55,-881.64 2040.89,-2932.44 1684.84,-3969.14 -672.29,-148.43 -1205.36,1259.96 -1856.38,2381.97l-7280.48 12532.69c-439.94,759.67 -659.58,716.1 -193.43,1489.59 945.36,1568.74 2267.68,4341.82 3292.61,5649 564.22,-412.62 6720.25,-11475.92 7955.89,-13608.14 438.99,-757.48 871.81,-1521.22 1314.09,-2277.06 1353.01,-2312.24 1051.96,-1558.42 542.05,-2289.78 244.24,-693.23 1761.56,-2226.96 1225.89,-2887.28 -538.38,-53.85 -504.94,323.64 -791.34,721.49 -655.67,71.58 -499.72,-599.1 -1105.98,513.29 -288.79,529.86 -455.53,1195.86 -1087.13,882.01 -148.88,-414.88 139.75,-684.67 370.95,-1062.2 516.78,-843.84 -15.84,-465.73 -120.66,-1026.41 -88.94,-475.6 671.96,-768.47 271.47,-1168.75 -412.62,-412.45 -620.04,353.3 -875.55,581.17z"/>
   <polygon class="fil1" points="9733.71,17878.28 13092.55,12508 9231.98,6213.33 3176.57,6183.17 "/>
  </g>
 </g>
</svg>
